<svg xmlns="http://www.w3.org/2000/svg" width="1280" height="720">
  <defs>
    <linearGradient id="g" x1="0" x2="1">
      <stop offset="0" stop-color="#1e293b"/>
      <stop offset="1" stop-color="#0b1020"/>
    </linearGradient>
  </defs>
  <rect width="100%" height="100%" fill="url(#g)"/>
  <rect x="30" y="30" width="1220" height="660" rx="16" fill="#0f172a" stroke="#334155" stroke-width="2"/>
  <text x="50" y="80" fill="#e2e8f0" font-family="Inter, Arial" font-size="28" font-weight="700">CloudWatch Dashboard — EC2 Monitoring</text>
  <rect x="50" y="110" width="560" height="240" fill="#0b1020" stroke="#475569" rx="10"/>
  <text x="70" y="145" fill="#e2e8f0" font-family="Inter, Arial" font-size="18">CPU Utilization (%)</text>
  <polyline points="70,300 120,260 170,280 220,220 270,260 320,200 370,210 420,180 470,220 520,190 560,210" fill="none" stroke="#60a5fa" stroke-width="3"/>
  <rect x="640" y="110" width="560" height="240" fill="#0b1020" stroke="#475569" rx="10"/>
  <text x="660" y="145" fill="#e2e8f0" font-family="Inter, Arial" font-size="18">Network In / Out (bytes)</text>
  <polyline points="660,320 700,300 740,315 780,280 820,295 860,270 900,285 940,260 980,275 1020,265 1080,280" fill="none" stroke="#34d399" stroke-width="3"/>
  <polyline points="660,330 700,315 740,305 780,290 820,285 860,275 900,270 940,265 980,260 1020,255 1080,250" fill="none" stroke="#f59e0b" stroke-width="3"/>
  <rect x="50" y="370" width="560" height="240" fill="#0b1020" stroke="#475569" rx="10"/>
  <text x="70" y="405" fill="#e2e8f0" font-family="Inter, Arial" font-size="18">Status Check Failed (Any)</text>
  <polyline points="70,580 120,580 170,580 220,560 270,580 320,580 370,560 420,580 470,580 520,540 560,580" fill="none" stroke="#ef4444" stroke-width="3"/>
  <rect x="640" y="370" width="560" height="240" fill="#0b1020" stroke="#475569" rx="10"/>
  <text x="660" y="405" fill="#e2e8f0" font-family="Inter, Arial" font-size="18">CPU Credit Balance (T-instances)</text>
  <polyline points="660,590 700,580 740,575 780,560 820,545 860,530 900,520 940,515 980,510 1020,505 1080,500" fill="none" stroke="#a78bfa" stroke-width="3"/>
</svg>
